<svg xmlns="http://www.w3.org/2000/svg" width="2000" height="100" viewBox="0 0 2000 100" preserveAspectRatio="none" shape-rendering="crispEdges">

<defs>
  <linearGradient id="sky" x1="0" y1="0" x2="2000" y2="0" gradientUnits="userSpaceOnUse">
    <stop offset="0"    stop-color="#7AA6C8"/> <!-- forest teal (B1 0–500) -->
    <stop offset="0.20" stop-color="#8FB8D2"/>
    <stop offset="0.27" stop-color="#B8DCE8"/> <!-- beach pale azure (B2 500–950) -->
    <stop offset="0.42" stop-color="#A7D8E8"/>
    <stop offset="0.475" stop-color="#C8DDEC"/> <!-- beach→snow cool bright -->
    <stop offset="0.54" stop-color="#D8E6F2"/> <!-- snowy mountain ice-blue (B3 950–1400) -->
    <stop offset="0.64" stop-color="#BCCEDE"/>
    <stop offset="0.70" stop-color="#8C6A7A"/> <!-- snow→volcano dusky transition -->
    <stop offset="0.78" stop-color="#7A3345"/> <!-- volcano deep red (B4 1400–1800) -->
    <stop offset="0.84" stop-color="#B04A3E"/> <!-- volcano peak (ashy fire-glow) -->
    <stop offset="0.90" stop-color="#6A4658"/> <!-- volcano cool-down / ash -->
    <stop offset="0.95" stop-color="#6F8896"/> <!-- ash-cloud fade toward forest (B5 1800–2000) -->
    <stop offset="1"    stop-color="#7AA6C8"/> <!-- back to forest teal — seamless wrap -->
  </linearGradient>
  <linearGradient id="skyBottom" x1="0" y1="0" x2="0" y2="1">
    <stop offset="0" stop-color="#FFFFFF" stop-opacity="0"/>
    <stop offset="1" stop-color="#FFFFFF" stop-opacity="0.12"/>
  </linearGradient>
</defs>
<rect width="2000" height="100" fill="url(#sky)"/>
<rect width="2000" height="100" fill="url(#skyBottom)"/>

<rect x="0" y="0" width="500" height="56" fill="#4A7E9B" fill-opacity="0.12"/><rect x="-13" y="59" width="2" height="3" fill="#1C0E07"/><polygon points="-20,59 -4,59 -12,53" fill="#0D2A16"/><polygon points="-18,54 -6,54 -12,49" fill="#1B3D25"/><polygon points="-16,49 -8,49 -12,44" fill="#275C33"/><rect x="-1" y="59" width="2" height="3" fill="#1C0E07"/><polygon points="-6,59 6,59 0,54" fill="#0D2A16"/><polygon points="-5,55 5,55 0,51" fill="#1B3D25"/><polygon points="-3,51 3,51 0,48" fill="#275C33"/><rect x="11" y="59" width="2" height="3" fill="#1C0E07"/><polygon points="6,59 18,59 12,54" fill="#0D2A16"/><polygon points="7,55 17,55 12,50" fill="#1B3D25"/><polygon points="9,51 15,51 12,47" fill="#275C33"/><rect x="23" y="59" width="2" height="3" fill="#1C0E07"/><polygon points="17,59 31,59 24,53" fill="#0D2A16"/><polygon points="19,55 29,55 24,50" fill="#1B3D25"/><polygon points="20,51 28,51 24,46" fill="#275C33"/><rect x="35" y="59" width="2" height="3" fill="#1C0E07"/><polygon points="29,59 43,59 36,53" fill="#0D2A16"/><polygon points="30,54 42,54 36,49" fill="#1B3D25"/><polygon points="32,50 40,50 36,45" fill="#275C33"/><rect x="47" y="59" width="2" height="3" fill="#1C0E07"/><polygon points="40,59 56,59 48,53" fill="#0D2A16"/><polygon points="42,54 54,54 48,49" fill="#1B3D25"/><polygon points="44,49 52,49 48,44" fill="#275C33"/><rect x="59" y="59" width="2" height="3" fill="#1C0E07"/><polygon points="54,59 66,59 60,54" fill="#0D2A16"/><polygon points="55,55 65,55 60,51" fill="#1B3D25"/><polygon points="57,51 63,51 60,48" fill="#275C33"/><rect x="71" y="59" width="2" height="3" fill="#1C0E07"/><polygon points="66,59 78,59 72,54" fill="#0D2A16"/><polygon points="67,55 77,55 72,50" fill="#1B3D25"/><polygon points="69,51 75,51 72,47" fill="#275C33"/><rect x="83" y="59" width="2" height="3" fill="#1C0E07"/><polygon points="77,59 91,59 84,53" fill="#0D2A16"/><polygon points="79,55 89,55 84,50" fill="#1B3D25"/><polygon points="80,51 88,51 84,46" fill="#275C33"/><rect x="95" y="59" width="2" height="3" fill="#1C0E07"/><polygon points="89,59 103,59 96,53" fill="#0D2A16"/><polygon points="90,54 102,54 96,49" fill="#1B3D25"/><polygon points="92,50 100,50 96,45" fill="#275C33"/><rect x="107" y="59" width="2" height="3" fill="#1C0E07"/><polygon points="100,59 116,59 108,53" fill="#0D2A16"/><polygon points="102,54 114,54 108,49" fill="#1B3D25"/><polygon points="104,49 112,49 108,44" fill="#275C33"/><rect x="119" y="59" width="2" height="3" fill="#1C0E07"/><polygon points="114,59 126,59 120,54" fill="#0D2A16"/><polygon points="115,55 125,55 120,51" fill="#1B3D25"/><polygon points="117,51 123,51 120,48" fill="#275C33"/><rect x="131" y="59" width="2" height="3" fill="#1C0E07"/><polygon points="126,59 138,59 132,54" fill="#0D2A16"/><polygon points="127,55 137,55 132,50" fill="#1B3D25"/><polygon points="129,51 135,51 132,47" fill="#275C33"/><rect x="143" y="59" width="2" height="3" fill="#1C0E07"/><polygon points="137,59 151,59 144,53" fill="#0D2A16"/><polygon points="139,55 149,55 144,50" fill="#1B3D25"/><polygon points="140,51 148,51 144,46" fill="#275C33"/><rect x="155" y="59" width="2" height="3" fill="#1C0E07"/><polygon points="149,59 163,59 156,53" fill="#0D2A16"/><polygon points="150,54 162,54 156,49" fill="#1B3D25"/><polygon points="152,50 160,50 156,45" fill="#275C33"/><rect x="167" y="59" width="2" height="3" fill="#1C0E07"/><polygon points="160,59 176,59 168,53" fill="#0D2A16"/><polygon points="162,54 174,54 168,49" fill="#1B3D25"/><polygon points="164,49 172,49 168,44" fill="#275C33"/><rect x="179" y="59" width="2" height="3" fill="#1C0E07"/><polygon points="174,59 186,59 180,54" fill="#0D2A16"/><polygon points="175,55 185,55 180,51" fill="#1B3D25"/><polygon points="177,51 183,51 180,48" fill="#275C33"/><rect x="191" y="59" width="2" height="3" fill="#1C0E07"/><polygon points="186,59 198,59 192,54" fill="#0D2A16"/><polygon points="187,55 197,55 192,50" fill="#1B3D25"/><polygon points="189,51 195,51 192,47" fill="#275C33"/><rect x="203" y="59" width="2" height="3" fill="#1C0E07"/><polygon points="197,59 211,59 204,53" fill="#0D2A16"/><polygon points="199,55 209,55 204,50" fill="#1B3D25"/><polygon points="200,51 208,51 204,46" fill="#275C33"/><rect x="215" y="59" width="2" height="3" fill="#1C0E07"/><polygon points="209,59 223,59 216,53" fill="#0D2A16"/><polygon points="210,54 222,54 216,49" fill="#1B3D25"/><polygon points="212,50 220,50 216,45" fill="#275C33"/><rect x="227" y="59" width="2" height="3" fill="#1C0E07"/><polygon points="220,59 236,59 228,53" fill="#0D2A16"/><polygon points="222,54 234,54 228,49" fill="#1B3D25"/><polygon points="224,49 232,49 228,44" fill="#275C33"/><rect x="239" y="59" width="2" height="3" fill="#1C0E07"/><polygon points="234,59 246,59 240,54" fill="#0D2A16"/><polygon points="235,55 245,55 240,51" fill="#1B3D25"/><polygon points="237,51 243,51 240,48" fill="#275C33"/><rect x="251" y="59" width="2" height="3" fill="#1C0E07"/><polygon points="246,59 258,59 252,54" fill="#0D2A16"/><polygon points="247,55 257,55 252,50" fill="#1B3D25"/><polygon points="249,51 255,51 252,47" fill="#275C33"/><rect x="263" y="59" width="2" height="3" fill="#1C0E07"/><polygon points="257,59 271,59 264,53" fill="#0D2A16"/><polygon points="259,55 269,55 264,50" fill="#1B3D25"/><polygon points="260,51 268,51 264,46" fill="#275C33"/><rect x="275" y="59" width="2" height="3" fill="#1C0E07"/><polygon points="269,59 283,59 276,53" fill="#0D2A16"/><polygon points="270,54 282,54 276,49" fill="#1B3D25"/><polygon points="272,50 280,50 276,45" fill="#275C33"/><rect x="287" y="59" width="2" height="3" fill="#1C0E07"/><polygon points="280,59 296,59 288,53" fill="#0D2A16"/><polygon points="282,54 294,54 288,49" fill="#1B3D25"/><polygon points="284,49 292,49 288,44" fill="#275C33"/><rect x="299" y="59" width="2" height="3" fill="#1C0E07"/><polygon points="294,59 306,59 300,54" fill="#0D2A16"/><polygon points="295,55 305,55 300,51" fill="#1B3D25"/><polygon points="297,51 303,51 300,48" fill="#275C33"/><rect x="311" y="59" width="2" height="3" fill="#1C0E07"/><polygon points="306,59 318,59 312,54" fill="#0D2A16"/><polygon points="307,55 317,55 312,50" fill="#1B3D25"/><polygon points="309,51 315,51 312,47" fill="#275C33"/><rect x="323" y="59" width="2" height="3" fill="#1C0E07"/><polygon points="317,59 331,59 324,53" fill="#0D2A16"/><polygon points="319,55 329,55 324,50" fill="#1B3D25"/><polygon points="320,51 328,51 324,46" fill="#275C33"/><rect x="335" y="59" width="2" height="3" fill="#1C0E07"/><polygon points="329,59 343,59 336,53" fill="#0D2A16"/><polygon points="330,54 342,54 336,49" fill="#1B3D25"/><polygon points="332,50 340,50 336,45" fill="#275C33"/><rect x="347" y="59" width="2" height="3" fill="#1C0E07"/><polygon points="340,59 356,59 348,53" fill="#0D2A16"/><polygon points="342,54 354,54 348,49" fill="#1B3D25"/><polygon points="344,49 352,49 348,44" fill="#275C33"/><rect x="359" y="59" width="2" height="3" fill="#1C0E07"/><polygon points="354,59 366,59 360,54" fill="#0D2A16"/><polygon points="355,55 365,55 360,51" fill="#1B3D25"/><polygon points="357,51 363,51 360,48" fill="#275C33"/><rect x="371" y="59" width="2" height="3" fill="#1C0E07"/><polygon points="366,59 378,59 372,54" fill="#0D2A16"/><polygon points="367,55 377,55 372,50" fill="#1B3D25"/><polygon points="369,51 375,51 372,47" fill="#275C33"/><rect x="383" y="59" width="2" height="3" fill="#1C0E07"/><polygon points="377,59 391,59 384,53" fill="#0D2A16"/><polygon points="379,55 389,55 384,50" fill="#1B3D25"/><polygon points="380,51 388,51 384,46" fill="#275C33"/><rect x="395" y="59" width="2" height="3" fill="#1C0E07"/><polygon points="389,59 403,59 396,53" fill="#0D2A16"/><polygon points="390,54 402,54 396,49" fill="#1B3D25"/><polygon points="392,50 400,50 396,45" fill="#275C33"/><rect x="407" y="59" width="2" height="3" fill="#1C0E07"/><polygon points="400,59 416,59 408,53" fill="#0D2A16"/><polygon points="402,54 414,54 408,49" fill="#1B3D25"/><polygon points="404,49 412,49 408,44" fill="#275C33"/><rect x="419" y="59" width="2" height="3" fill="#1C0E07"/><polygon points="414,59 426,59 420,54" fill="#0D2A16"/><polygon points="415,55 425,55 420,51" fill="#1B3D25"/><polygon points="417,51 423,51 420,48" fill="#275C33"/><rect x="431" y="59" width="2" height="3" fill="#1C0E07"/><polygon points="426,59 438,59 432,54" fill="#0D2A16"/><polygon points="427,55 437,55 432,50" fill="#1B3D25"/><polygon points="429,51 435,51 432,47" fill="#275C33"/><rect x="443" y="59" width="2" height="3" fill="#1C0E07"/><polygon points="437,59 451,59 444,53" fill="#0D2A16"/><polygon points="439,55 449,55 444,50" fill="#1B3D25"/><polygon points="440,51 448,51 444,46" fill="#275C33"/><rect x="455" y="59" width="2" height="3" fill="#1C0E07"/><polygon points="449,59 463,59 456,53" fill="#0D2A16"/><polygon points="450,54 462,54 456,49" fill="#1B3D25"/><polygon points="452,50 460,50 456,45" fill="#275C33"/><rect x="467" y="59" width="2" height="3" fill="#1C0E07"/><polygon points="460,59 476,59 468,53" fill="#0D2A16"/><polygon points="462,54 474,54 468,49" fill="#1B3D25"/><polygon points="464,49 472,49 468,44" fill="#275C33"/><rect x="479" y="59" width="2" height="3" fill="#1C0E07"/><polygon points="474,59 486,59 480,54" fill="#0D2A16"/><polygon points="475,55 485,55 480,51" fill="#1B3D25"/><polygon points="477,51 483,51 480,48" fill="#275C33"/><rect x="491" y="59" width="2" height="3" fill="#1C0E07"/><polygon points="486,59 498,59 492,54" fill="#0D2A16"/><polygon points="487,55 497,55 492,50" fill="#1B3D25"/><polygon points="489,51 495,51 492,47" fill="#275C33"/><rect x="503" y="59" width="2" height="3" fill="#1C0E07"/><polygon points="497,59 511,59 504,53" fill="#0D2A16"/><polygon points="499,55 509,55 504,50" fill="#1B3D25"/><polygon points="500,51 508,51 504,46" fill="#275C33"/><rect x="0" y="64" width="500" height="36" fill="#2E5A38"/><rect x="0" y="64" width="500" height="2" fill="#436E48"/><polygon points="0,10 18,10 8,100 -10,100" fill="#FFF8D0" fill-opacity="0.08"/><polygon points="100,10 118,10 108,100 90,100" fill="#FFF8D0" fill-opacity="0.08"/><polygon points="200,10 218,10 208,100 190,100" fill="#FFF8D0" fill-opacity="0.08"/><polygon points="300,10 318,10 308,100 290,100" fill="#FFF8D0" fill-opacity="0.08"/><polygon points="400,10 418,10 408,100 390,100" fill="#FFF8D0" fill-opacity="0.08"/><polygon points="500,10 518,10 508,100 490,100" fill="#FFF8D0" fill-opacity="0.08"/><rect x="29" y="71" width="2" height="5" fill="#3B1E10"/><polygon points="18,71 42,71 30,61" fill="#173C22"/><polygon points="21,63 39,63 30,55" fill="#276039"/><polygon points="24,56 36,56 30,48" fill="#4AA159"/><rect x="84" y="70" width="2" height="6" fill="#3B1E10"/><polygon points="72,70 98,70 85,59" fill="#173C22"/><polygon points="74,61 96,61 85,51" fill="#276039"/><polygon points="78,53 92,53 85,44" fill="#4AA159"/><rect x="139" y="71" width="2" height="5" fill="#3B1E10"/><polygon points="129,71 151,71 140,62" fill="#173C22"/><polygon points="131,64 149,64 140,56" fill="#276039"/><polygon points="134,57 146,57 140,50" fill="#4AA159"/><rect x="194" y="71" width="2" height="5" fill="#3B1E10"/><polygon points="182,71 208,71 195,60" fill="#173C22"/><polygon points="185,63 205,63 195,54" fill="#276039"/><polygon points="188,55 202,55 195,46" fill="#4AA159"/><rect x="249" y="70" width="2" height="6" fill="#3B1E10"/><polygon points="236,70 264,70 250,58" fill="#173C22"/><polygon points="239,60 261,60 250,50" fill="#276039"/><polygon points="243,51 257,51 250,42" fill="#4AA159"/><rect x="304" y="71" width="2" height="5" fill="#3B1E10"/><polygon points="294,71 316,71 305,62" fill="#173C22"/><polygon points="296,63 314,63 305,55" fill="#276039"/><polygon points="299,56 311,56 305,49" fill="#4AA159"/><rect x="359" y="70" width="2" height="6" fill="#3B1E10"/><polygon points="347,70 373,70 360,59" fill="#173C22"/><polygon points="350,61 370,61 360,52" fill="#276039"/><polygon points="353,53 367,53 360,45" fill="#4AA159"/><rect x="414" y="71" width="2" height="5" fill="#3B1E10"/><polygon points="403,71 427,71 415,61" fill="#173C22"/><polygon points="405,63 425,63 415,54" fill="#276039"/><polygon points="409,55 421,55 415,47" fill="#4AA159"/><rect x="469" y="70" width="2" height="6" fill="#3B1E10"/><polygon points="456,70 484,70 470,58" fill="#173C22"/><polygon points="459,61 481,61 470,51" fill="#276039"/><polygon points="463,52 477,52 470,43" fill="#4AA159"/><rect x="12" y="76" width="3" height="2" fill="#5A6B42"/><rect x="39" y="79" width="2" height="1" fill="#8C7A4F"/><rect x="66" y="78" width="1" height="3" fill="#F2EAD0"/><rect x="65" y="77" width="3" height="2" fill="#C33A3A"/><rect x="93" y="80" width="2" height="1" fill="#6B5A38"/><rect x="120" y="76" width="3" height="2" fill="#5A6B42"/><rect x="147" y="79" width="2" height="1" fill="#8C7A4F"/><rect x="174" y="78" width="1" height="3" fill="#F2EAD0"/><rect x="173" y="77" width="3" height="2" fill="#C33A3A"/><rect x="201" y="80" width="2" height="1" fill="#6B5A38"/><rect x="228" y="76" width="3" height="2" fill="#5A6B42"/><rect x="255" y="79" width="2" height="1" fill="#8C7A4F"/><rect x="282" y="78" width="1" height="3" fill="#F2EAD0"/><rect x="281" y="77" width="3" height="2" fill="#C33A3A"/><rect x="309" y="80" width="2" height="1" fill="#6B5A38"/><rect x="336" y="76" width="3" height="2" fill="#5A6B42"/><rect x="363" y="79" width="2" height="1" fill="#8C7A4F"/><rect x="390" y="78" width="1" height="3" fill="#F2EAD0"/><rect x="389" y="77" width="3" height="2" fill="#C33A3A"/><rect x="417" y="80" width="2" height="1" fill="#6B5A38"/><rect x="444" y="76" width="3" height="2" fill="#5A6B42"/><rect x="471" y="79" width="2" height="1" fill="#8C7A4F"/><rect x="498" y="78" width="1" height="3" fill="#F2EAD0"/><rect x="497" y="77" width="3" height="2" fill="#C33A3A"/><rect x="25" y="40" width="1" height="1" fill="#FFF4B0"/><rect x="70" y="48" width="1" height="1" fill="#FFF4B0"/><rect x="115" y="56" width="1" height="1" fill="#FFF4B0"/><rect x="160" y="64" width="1" height="1" fill="#FFF4B0"/><rect x="205" y="40" width="1" height="1" fill="#FFF4B0"/><rect x="250" y="48" width="1" height="1" fill="#FFF4B0"/><rect x="295" y="56" width="1" height="1" fill="#FFF4B0"/><rect x="340" y="64" width="1" height="1" fill="#FFF4B0"/><rect x="385" y="40" width="1" height="1" fill="#FFF4B0"/><rect x="430" y="48" width="1" height="1" fill="#FFF4B0"/><rect x="475" y="56" width="1" height="1" fill="#FFF4B0"/>
<rect x="950" y="0" width="450" height="50" fill="#D6E4F0" fill-opacity="0.24"/><polygon points="932,58 1028,58 980,32" fill="#A7B8CE"/><polygon points="980,58 1028,58 980,32" fill="#89A0BA" fill-opacity="0.55"/><polygon points="972,38 988,38 980,32" fill="#F5F7FA" fill-opacity="0.85"/><polygon points="997,58 1093,58 1045,40" fill="#A7B8CE"/><polygon points="1045,58 1093,58 1045,40" fill="#89A0BA" fill-opacity="0.55"/><polygon points="1037,46 1053,46 1045,40" fill="#F5F7FA" fill-opacity="0.85"/><polygon points="1062,58 1158,58 1110,28" fill="#A7B8CE"/><polygon points="1110,58 1158,58 1110,28" fill="#89A0BA" fill-opacity="0.55"/><polygon points="1102,34 1118,34 1110,28" fill="#F5F7FA" fill-opacity="0.85"/><polygon points="1127,58 1223,58 1175,38" fill="#A7B8CE"/><polygon points="1175,58 1223,58 1175,38" fill="#89A0BA" fill-opacity="0.55"/><polygon points="1167,44 1183,44 1175,38" fill="#F5F7FA" fill-opacity="0.85"/><polygon points="1192,58 1288,58 1240,32" fill="#A7B8CE"/><polygon points="1240,58 1288,58 1240,32" fill="#89A0BA" fill-opacity="0.55"/><polygon points="1232,38 1248,38 1240,32" fill="#F5F7FA" fill-opacity="0.85"/><polygon points="1257,58 1353,58 1305,36" fill="#A7B8CE"/><polygon points="1305,58 1353,58 1305,36" fill="#89A0BA" fill-opacity="0.55"/><polygon points="1297,42 1313,42 1305,36" fill="#F5F7FA" fill-opacity="0.85"/><polygon points="1322,58 1418,58 1370,30" fill="#A7B8CE"/><polygon points="1370,58 1418,58 1370,30" fill="#89A0BA" fill-opacity="0.55"/><polygon points="1362,36 1378,36 1370,30" fill="#F5F7FA" fill-opacity="0.85"/><polygon points="955,66 1065,66 1010,12" fill="#6B7A92"/><polygon points="1010,66 1065,66 1010,12" fill="#475468" fill-opacity="0.55"/><polygon points="984,32 1036,32 1010,12" fill="#F5F7FA"/><polygon points="984,32 992,38 1000,32" fill="#F5F7FA"/><polygon points="1020,32 1028,38 1036,32" fill="#F5F7FA"/><polygon points="1010,32 1036,32 1010,12" fill="#C9D3E2" fill-opacity="0.55"/><polygon points="1055,66 1165,66 1110,6" fill="#6B7A92"/><polygon points="1110,66 1165,66 1110,6" fill="#475468" fill-opacity="0.55"/><polygon points="1084,26 1136,26 1110,6" fill="#F5F7FA"/><polygon points="1084,26 1092,32 1100,26" fill="#F5F7FA"/><polygon points="1120,26 1128,32 1136,26" fill="#F5F7FA"/><polygon points="1110,26 1136,26 1110,6" fill="#C9D3E2" fill-opacity="0.55"/><polygon points="1145,66 1255,66 1200,16" fill="#6B7A92"/><polygon points="1200,66 1255,66 1200,16" fill="#475468" fill-opacity="0.55"/><polygon points="1174,36 1226,36 1200,16" fill="#F5F7FA"/><polygon points="1174,36 1182,42 1190,36" fill="#F5F7FA"/><polygon points="1210,36 1218,42 1226,36" fill="#F5F7FA"/><polygon points="1200,36 1226,36 1200,16" fill="#C9D3E2" fill-opacity="0.55"/><polygon points="1235,66 1345,66 1290,10" fill="#6B7A92"/><polygon points="1290,66 1345,66 1290,10" fill="#475468" fill-opacity="0.55"/><polygon points="1264,30 1316,30 1290,10" fill="#F5F7FA"/><polygon points="1264,30 1272,36 1280,30" fill="#F5F7FA"/><polygon points="1300,30 1308,36 1316,30" fill="#F5F7FA"/><polygon points="1290,30 1316,30 1290,10" fill="#C9D3E2" fill-opacity="0.55"/><polygon points="1315,66 1425,66 1370,20" fill="#6B7A92"/><polygon points="1370,66 1425,66 1370,20" fill="#475468" fill-opacity="0.55"/><polygon points="1344,40 1396,40 1370,20" fill="#F5F7FA"/><polygon points="1344,40 1352,46 1360,40" fill="#F5F7FA"/><polygon points="1380,40 1388,46 1396,40" fill="#F5F7FA"/><polygon points="1370,40 1396,40 1370,20" fill="#C9D3E2" fill-opacity="0.55"/><rect x="950" y="70" width="450" height="30" fill="#EAF2F8"/><rect x="950" y="70" width="450" height="2" fill="#FFFFFF"/><ellipse cx="970" cy="77" rx="18" ry="2" fill="#C2CED8" fill-opacity="0.4"/><ellipse cx="1025" cy="77" rx="18" ry="2" fill="#C2CED8" fill-opacity="0.4"/><ellipse cx="1080" cy="77" rx="18" ry="2" fill="#C2CED8" fill-opacity="0.4"/><ellipse cx="1135" cy="77" rx="18" ry="2" fill="#C2CED8" fill-opacity="0.4"/><ellipse cx="1190" cy="77" rx="18" ry="2" fill="#C2CED8" fill-opacity="0.4"/><ellipse cx="1245" cy="77" rx="18" ry="2" fill="#C2CED8" fill-opacity="0.4"/><ellipse cx="1300" cy="77" rx="18" ry="2" fill="#C2CED8" fill-opacity="0.4"/><ellipse cx="1355" cy="77" rx="18" ry="2" fill="#C2CED8" fill-opacity="0.4"/><rect x="974" y="68" width="2" height="4" fill="#3B1E10"/><polygon points="967,68 983,68 975,61" fill="#1A3A28"/><polygon points="968,62 982,62 975,56" fill="#2E5A40"/><polygon points="971,57 979,57 975,52" fill="#4A8A5C"/><ellipse cx="972" cy="55" rx="4" ry="1.5" fill="#FFFFFF"/><ellipse cx="977" cy="59" rx="3" ry="1.2" fill="#FFFFFF"/><rect x="974" y="50" width="2" height="2" fill="#FFFFFF"/><rect x="1029" y="69" width="2" height="3" fill="#3B1E10"/><polygon points="1023,69 1037,69 1030,63" fill="#1A3A28"/><polygon points="1024,64 1036,64 1030,59" fill="#2E5A40"/><polygon points="1026,60 1034,60 1030,55" fill="#4A8A5C"/><ellipse cx="1027" cy="59" rx="4" ry="1.5" fill="#FFFFFF"/><ellipse cx="1032" cy="63" rx="3" ry="1.2" fill="#FFFFFF"/><rect x="1029" y="54" width="2" height="2" fill="#FFFFFF"/><rect x="1084" y="68" width="2" height="4" fill="#3B1E10"/><polygon points="1076,68 1094,68 1085,60" fill="#1A3A28"/><polygon points="1078,62 1092,62 1085,55" fill="#2E5A40"/><polygon points="1080,56 1090,56 1085,50" fill="#4A8A5C"/><ellipse cx="1082" cy="54" rx="4" ry="1.5" fill="#FFFFFF"/><ellipse cx="1087" cy="58" rx="3" ry="1.2" fill="#FFFFFF"/><rect x="1084" y="49" width="2" height="2" fill="#FFFFFF"/><rect x="1139" y="69" width="2" height="3" fill="#3B1E10"/><polygon points="1132,69 1148,69 1140,62" fill="#1A3A28"/><polygon points="1134,64 1146,64 1140,58" fill="#2E5A40"/><polygon points="1136,59 1144,59 1140,53" fill="#4A8A5C"/><ellipse cx="1137" cy="57" rx="4" ry="1.5" fill="#FFFFFF"/><ellipse cx="1142" cy="61" rx="3" ry="1.2" fill="#FFFFFF"/><rect x="1139" y="52" width="2" height="2" fill="#FFFFFF"/><rect x="1194" y="68" width="2" height="4" fill="#3B1E10"/><polygon points="1185,68 1205,68 1195,60" fill="#1A3A28"/><polygon points="1187,61 1203,61 1195,54" fill="#2E5A40"/><polygon points="1190,55 1200,55 1195,48" fill="#4A8A5C"/><ellipse cx="1192" cy="52" rx="4" ry="1.5" fill="#FFFFFF"/><ellipse cx="1197" cy="56" rx="3" ry="1.2" fill="#FFFFFF"/><rect x="1194" y="47" width="2" height="2" fill="#FFFFFF"/><rect x="1249" y="69" width="2" height="3" fill="#3B1E10"/><polygon points="1242,69 1258,69 1250,63" fill="#1A3A28"/><polygon points="1244,64 1256,64 1250,59" fill="#2E5A40"/><polygon points="1246,59 1254,59 1250,54" fill="#4A8A5C"/><ellipse cx="1247" cy="58" rx="4" ry="1.5" fill="#FFFFFF"/><ellipse cx="1252" cy="62" rx="3" ry="1.2" fill="#FFFFFF"/><rect x="1249" y="53" width="2" height="2" fill="#FFFFFF"/><rect x="1304" y="68" width="2" height="4" fill="#3B1E10"/><polygon points="1296,68 1314,68 1305,61" fill="#1A3A28"/><polygon points="1298,62 1312,62 1305,56" fill="#2E5A40"/><polygon points="1300,57 1310,57 1305,51" fill="#4A8A5C"/><ellipse cx="1302" cy="54" rx="4" ry="1.5" fill="#FFFFFF"/><ellipse cx="1307" cy="58" rx="3" ry="1.2" fill="#FFFFFF"/><rect x="1304" y="49" width="2" height="2" fill="#FFFFFF"/><rect x="1359" y="68" width="2" height="4" fill="#3B1E10"/><polygon points="1352,68 1368,68 1360,61" fill="#1A3A28"/><polygon points="1353,62 1367,62 1360,56" fill="#2E5A40"/><polygon points="1356,57 1364,57 1360,52" fill="#4A8A5C"/><ellipse cx="1357" cy="55" rx="4" ry="1.5" fill="#FFFFFF"/><ellipse cx="1362" cy="59" rx="3" ry="1.2" fill="#FFFFFF"/><rect x="1359" y="50" width="2" height="2" fill="#FFFFFF"/><polygon points="990,67 993,67 991.5,72" fill="#9CC6DA" fill-opacity="0.85"/><polygon points="1060,67 1063,67 1061.5,72" fill="#9CC6DA" fill-opacity="0.85"/><polygon points="1130,67 1133,67 1131.5,72" fill="#9CC6DA" fill-opacity="0.85"/><polygon points="1200,67 1203,67 1201.5,72" fill="#9CC6DA" fill-opacity="0.85"/><polygon points="1270,67 1273,67 1271.5,72" fill="#9CC6DA" fill-opacity="0.85"/><polygon points="1340,67 1343,67 1341.5,72" fill="#9CC6DA" fill-opacity="0.85"/><rect x="965" y="15" width="1" height="1" fill="#FFFFFF" fill-opacity="0.85"/><rect x="988" y="22" width="1" height="1" fill="#FFFFFF" fill-opacity="0.85"/><rect x="1011" y="29" width="1" height="1" fill="#FFFFFF" fill-opacity="0.85"/><rect x="1034" y="36" width="1" height="1" fill="#FFFFFF" fill-opacity="0.85"/><rect x="1057" y="43" width="1" height="1" fill="#FFFFFF" fill-opacity="0.85"/><rect x="1080" y="20" width="1" height="1" fill="#FFFFFF" fill-opacity="0.85"/><rect x="1103" y="27" width="1" height="1" fill="#FFFFFF" fill-opacity="0.85"/><rect x="1126" y="34" width="1" height="1" fill="#FFFFFF" fill-opacity="0.85"/><rect x="1149" y="41" width="1" height="1" fill="#FFFFFF" fill-opacity="0.85"/><rect x="1172" y="18" width="1" height="1" fill="#FFFFFF" fill-opacity="0.85"/><rect x="1195" y="25" width="1" height="1" fill="#FFFFFF" fill-opacity="0.85"/><rect x="1218" y="32" width="1" height="1" fill="#FFFFFF" fill-opacity="0.85"/><rect x="1241" y="39" width="1" height="1" fill="#FFFFFF" fill-opacity="0.85"/><rect x="1264" y="16" width="1" height="1" fill="#FFFFFF" fill-opacity="0.85"/><rect x="1287" y="23" width="1" height="1" fill="#FFFFFF" fill-opacity="0.85"/><rect x="1310" y="30" width="1" height="1" fill="#FFFFFF" fill-opacity="0.85"/><rect x="1333" y="37" width="1" height="1" fill="#FFFFFF" fill-opacity="0.85"/><rect x="1356" y="44" width="1" height="1" fill="#FFFFFF" fill-opacity="0.85"/><rect x="1379" y="21" width="1" height="1" fill="#FFFFFF" fill-opacity="0.85"/><rect x="1402" y="28" width="1" height="1" fill="#FFFFFF" fill-opacity="0.85"/>
<rect x="500" y="0" width="450" height="100" fill="#FFF4D0" fill-opacity="0.06"/><path d="M500,60 Q570,52 640,58 T780,56 T950,60 L950,70 L500,70 Z" fill="#93B1C8" fill-opacity="0.55"/><rect x="500" y="62" width="450" height="3" fill="#6FB6DC"/><rect x="500" y="65" width="450" height="4" fill="#3A7EC2"/><rect x="500" y="69" width="450" height="3" fill="#2458A4"/><rect x="500" y="70" width="450" height="1" fill="#CFEAF2"/><rect x="506" y="64" width="4" height="1" fill="#CFEAF2" fill-opacity="0.8"/><rect x="522" y="67" width="4" height="1" fill="#CFEAF2" fill-opacity="0.8"/><rect x="538" y="70" width="4" height="1" fill="#CFEAF2" fill-opacity="0.8"/><rect x="554" y="73" width="4" height="1" fill="#CFEAF2" fill-opacity="0.8"/><rect x="570" y="64" width="4" height="1" fill="#CFEAF2" fill-opacity="0.8"/><rect x="586" y="67" width="4" height="1" fill="#CFEAF2" fill-opacity="0.8"/><rect x="602" y="70" width="4" height="1" fill="#CFEAF2" fill-opacity="0.8"/><rect x="618" y="73" width="4" height="1" fill="#CFEAF2" fill-opacity="0.8"/><rect x="634" y="64" width="4" height="1" fill="#CFEAF2" fill-opacity="0.8"/><rect x="650" y="67" width="4" height="1" fill="#CFEAF2" fill-opacity="0.8"/><rect x="666" y="70" width="4" height="1" fill="#CFEAF2" fill-opacity="0.8"/><rect x="682" y="73" width="4" height="1" fill="#CFEAF2" fill-opacity="0.8"/><rect x="698" y="64" width="4" height="1" fill="#CFEAF2" fill-opacity="0.8"/><rect x="714" y="67" width="4" height="1" fill="#CFEAF2" fill-opacity="0.8"/><rect x="730" y="70" width="4" height="1" fill="#CFEAF2" fill-opacity="0.8"/><rect x="746" y="73" width="4" height="1" fill="#CFEAF2" fill-opacity="0.8"/><rect x="762" y="64" width="4" height="1" fill="#CFEAF2" fill-opacity="0.8"/><rect x="778" y="67" width="4" height="1" fill="#CFEAF2" fill-opacity="0.8"/><rect x="794" y="70" width="4" height="1" fill="#CFEAF2" fill-opacity="0.8"/><rect x="810" y="73" width="4" height="1" fill="#CFEAF2" fill-opacity="0.8"/><rect x="826" y="64" width="4" height="1" fill="#CFEAF2" fill-opacity="0.8"/><rect x="842" y="67" width="4" height="1" fill="#CFEAF2" fill-opacity="0.8"/><rect x="858" y="70" width="4" height="1" fill="#CFEAF2" fill-opacity="0.8"/><rect x="874" y="73" width="4" height="1" fill="#CFEAF2" fill-opacity="0.8"/><rect x="890" y="64" width="4" height="1" fill="#CFEAF2" fill-opacity="0.8"/><rect x="906" y="67" width="4" height="1" fill="#CFEAF2" fill-opacity="0.8"/><rect x="922" y="70" width="4" height="1" fill="#CFEAF2" fill-opacity="0.8"/><rect x="938" y="73" width="4" height="1" fill="#CFEAF2" fill-opacity="0.8"/><rect x="954" y="64" width="4" height="1" fill="#CFEAF2" fill-opacity="0.8"/><rect x="970" y="67" width="4" height="1" fill="#CFEAF2" fill-opacity="0.8"/><rect x="598" y="68" width="24" height="4" fill="#5A3A24"/><rect x="598" y="71" width="24" height="1" fill="#2E1A0A"/><rect x="605" y="54" width="1" height="14" fill="#1F1108"/><rect x="616" y="57" width="1" height="11" fill="#1F1108"/><polygon points="606,54 606,66 614,66" fill="#FFFFFF"/><polygon points="617,57 617,65 622,65" fill="#D5C4A0"/><rect x="800" y="54" width="80" height="10" fill="#F2E2BE"/><rect x="800" y="54" width="80" height="2" fill="#C6A87A"/><polygon points="804,54 818,54 811,46" fill="#B64B3E"/><polygon points="811,54 818,54 811,46" fill="#842E22"/><polygon points="820,54 834,54 827,46" fill="#B64B3E"/><polygon points="827,54 834,54 827,46" fill="#842E22"/><polygon points="836,54 850,54 843,46" fill="#B64B3E"/><polygon points="843,54 850,54 843,46" fill="#842E22"/><polygon points="852,54 866,54 859,46" fill="#B64B3E"/><polygon points="859,54 866,54 859,46" fill="#842E22"/><polygon points="868,54 882,54 875,46" fill="#B64B3E"/><polygon points="875,54 882,54 875,46" fill="#842E22"/><rect x="810" y="58" width="2" height="3" fill="#FDE085"/><rect x="828" y="58" width="2" height="3" fill="#FDE085"/><rect x="846" y="58" width="2" height="3" fill="#FDE085"/><rect x="864" y="58" width="2" height="3" fill="#FDE085"/><rect x="880" y="40" width="8" height="24" fill="#F2E2BE"/><polygon points="880,40 888,40 884,34" fill="#B64B3E"/><rect x="883" y="46" width="2" height="2" fill="#FDE085"/><rect x="500" y="72" width="450" height="28" fill="#EFD29A"/><rect x="500" y="72" width="450" height="2" fill="#F9E3B2"/><rect x="500" y="74" width="450" height="1" fill="#C89C62"/><path d="M560,72 Q563,62 561,50" stroke="#7B5030" stroke-width="2" fill="none"/><ellipse cx="554" cy="48" rx="9" ry="2" fill="#2E7D42" transform="rotate(-22 554 48)"/><ellipse cx="567" cy="48" rx="9" ry="2" fill="#2E7D42" transform="rotate(22 567 48)"/><ellipse cx="560" cy="45" rx="2" ry="5" fill="#56A562"/><rect x="563" y="52" width="1" height="1" fill="#DEA75A"/><path d="M920,72 Q923,62 921,50" stroke="#7B5030" stroke-width="2" fill="none"/><ellipse cx="914" cy="48" rx="9" ry="2" fill="#2E7D42" transform="rotate(-22 914 48)"/><ellipse cx="927" cy="48" rx="9" ry="2" fill="#2E7D42" transform="rotate(22 927 48)"/><ellipse cx="920" cy="45" rx="2" ry="5" fill="#56A562"/><rect x="923" y="52" width="1" height="1" fill="#DEA75A"/><circle cx="518" cy="78" r="1.2" fill="#FAF0E0"/><rect x="548" y="77" width="2" height="1" fill="#F4B3B3"/><rect x="578" y="79" width="1" height="1" fill="#5F4020"/><circle cx="608" cy="78" r="1.2" fill="#FAF0E0"/><rect x="638" y="77" width="2" height="1" fill="#F4B3B3"/><rect x="668" y="79" width="1" height="1" fill="#5F4020"/><circle cx="698" cy="78" r="1.2" fill="#FAF0E0"/><rect x="728" y="77" width="2" height="1" fill="#F4B3B3"/><rect x="758" y="79" width="1" height="1" fill="#5F4020"/><circle cx="788" cy="78" r="1.2" fill="#FAF0E0"/><rect x="818" y="77" width="2" height="1" fill="#F4B3B3"/><rect x="848" y="79" width="1" height="1" fill="#5F4020"/><circle cx="878" cy="78" r="1.2" fill="#FAF0E0"/><rect x="908" y="77" width="2" height="1" fill="#F4B3B3"/>
<rect x="1400" y="0" width="400" height="100" fill="#7A2B2B" fill-opacity="0.08"/><polygon points="1390,58 1470,58 1430,46" fill="#3E2A36"/><polygon points="1455,58 1535,58 1495,54" fill="#3E2A36"/><polygon points="1520,58 1600,58 1560,46" fill="#3E2A36"/><polygon points="1585,58 1665,58 1625,54" fill="#3E2A36"/><polygon points="1650,58 1730,58 1690,46" fill="#3E2A36"/><polygon points="1715,58 1795,58 1755,54" fill="#3E2A36"/><ellipse cx="1480" cy="30" rx="32" ry="12" fill="#5E4C5C" fill-opacity="0.6"/><ellipse cx="1470" cy="26" rx="18" ry="8" fill="#806E82" fill-opacity="0.5"/><ellipse cx="1494" cy="32" rx="14" ry="6" fill="#5E4C5C" fill-opacity="0.7"/><ellipse cx="1620" cy="30" rx="32" ry="12" fill="#5E4C5C" fill-opacity="0.6"/><ellipse cx="1610" cy="26" rx="18" ry="8" fill="#806E82" fill-opacity="0.5"/><ellipse cx="1634" cy="32" rx="14" ry="6" fill="#5E4C5C" fill-opacity="0.7"/><ellipse cx="1760" cy="30" rx="32" ry="12" fill="#5E4C5C" fill-opacity="0.6"/><ellipse cx="1750" cy="26" rx="18" ry="8" fill="#806E82" fill-opacity="0.5"/><ellipse cx="1774" cy="32" rx="14" ry="6" fill="#5E4C5C" fill-opacity="0.7"/><polygon points="1500,66 1640,66 1580,12 1560,12" fill="#3A2428"/><polygon points="1570,66 1640,66 1580,12" fill="#1F1519" fill-opacity="0.7"/><polygon points="1500,66 1530,66 1562,18" fill="#553336" fill-opacity="0.35"/><rect x="1560" y="11" width="20" height="3" fill="#E23C1E"/><rect x="1562" y="12" width="16" height="2" fill="#FF7636"/><rect x="1564" y="13" width="12" height="1" fill="#FFE88A"/><ellipse cx="1570" cy="10" rx="14" ry="4" fill="#FFD15C" fill-opacity="0.25"/><path d="M1566,14 L1556,66" stroke="#E23C1E" stroke-width="2" fill="none"/><path d="M1566,14 L1556,66" stroke="#FFD15C" stroke-width="1" fill="none"/><path d="M1573,14 L1592,63" stroke="#E23C1E" stroke-width="2" fill="none"/><path d="M1573,14 L1592,63" stroke="#FFD15C" stroke-width="1" fill="none"/><path d="M1570,14 L1574,66" stroke="#E23C1E" stroke-width="2" fill="none"/><path d="M1570,14 L1574,66" stroke="#FFD15C" stroke-width="1" fill="none"/><ellipse cx="1570" cy="2" rx="10" ry="5" fill="#806E82" fill-opacity="0.8"/><ellipse cx="1567" cy="-6" rx="14" ry="6" fill="#5E4C5C" fill-opacity="0.7"/><ellipse cx="1574" cy="-14" rx="18" ry="7" fill="#5E4C5C" fill-opacity="0.55"/><polygon points="1705,66 1775,66 1740,26" fill="#3A2428"/><polygon points="1740,66 1775,66 1740,26" fill="#1F1519" fill-opacity="0.6"/><rect x="1736" y="26" width="8" height="2" fill="#FF7636"/><rect x="1400" y="70" width="400" height="30" fill="#261A1F"/><rect x="1400" y="70" width="400" height="1" fill="#3A272D"/><rect x="1400" y="71" width="400" height="1" fill="#120A0E"/><rect x="1420" y="75" width="6" height="1" fill="#E23C1E" fill-opacity="0.8"/><rect x="1421" y="76" width="3" height="1" fill="#FFD15C" fill-opacity="0.7"/><rect x="1462" y="75" width="6" height="1" fill="#E23C1E" fill-opacity="0.8"/><rect x="1463" y="76" width="3" height="1" fill="#FFD15C" fill-opacity="0.7"/><rect x="1504" y="75" width="6" height="1" fill="#E23C1E" fill-opacity="0.8"/><rect x="1505" y="76" width="3" height="1" fill="#FFD15C" fill-opacity="0.7"/><rect x="1546" y="75" width="6" height="1" fill="#E23C1E" fill-opacity="0.8"/><rect x="1547" y="76" width="3" height="1" fill="#FFD15C" fill-opacity="0.7"/><rect x="1588" y="75" width="6" height="1" fill="#E23C1E" fill-opacity="0.8"/><rect x="1589" y="76" width="3" height="1" fill="#FFD15C" fill-opacity="0.7"/><rect x="1630" y="75" width="6" height="1" fill="#E23C1E" fill-opacity="0.8"/><rect x="1631" y="76" width="3" height="1" fill="#FFD15C" fill-opacity="0.7"/><rect x="1672" y="75" width="6" height="1" fill="#E23C1E" fill-opacity="0.8"/><rect x="1673" y="76" width="3" height="1" fill="#FFD15C" fill-opacity="0.7"/><rect x="1714" y="75" width="6" height="1" fill="#E23C1E" fill-opacity="0.8"/><rect x="1715" y="76" width="3" height="1" fill="#FFD15C" fill-opacity="0.7"/><rect x="1756" y="75" width="6" height="1" fill="#E23C1E" fill-opacity="0.8"/><rect x="1757" y="76" width="3" height="1" fill="#FFD15C" fill-opacity="0.7"/><rect x="1798" y="75" width="6" height="1" fill="#E23C1E" fill-opacity="0.8"/><rect x="1799" y="76" width="3" height="1" fill="#FFD15C" fill-opacity="0.7"/><ellipse cx="1480" cy="80" rx="16" ry="4" fill="#E23C1E"/><ellipse cx="1480" cy="80" rx="14" ry="3" fill="#FF7636"/><ellipse cx="1480" cy="79" rx="10" ry="2" fill="#FFD15C"/><ellipse cx="1480" cy="78" rx="20" ry="6" fill="#FFD15C" fill-opacity="0.12"/><ellipse cx="1630" cy="80" rx="12" ry="3" fill="#E23C1E"/><ellipse cx="1630" cy="80" rx="10" ry="2" fill="#FF7636"/><ellipse cx="1630" cy="79" rx="6" ry="1" fill="#FFD15C"/><ellipse cx="1630" cy="78" rx="16" ry="5" fill="#FFD15C" fill-opacity="0.12"/><ellipse cx="1730" cy="80" rx="14" ry="3" fill="#E23C1E"/><ellipse cx="1730" cy="80" rx="12" ry="2" fill="#FF7636"/><ellipse cx="1730" cy="79" rx="8" ry="1" fill="#FFD15C"/><ellipse cx="1730" cy="78" rx="18" ry="5" fill="#FFD15C" fill-opacity="0.12"/><rect x="1450" y="60" width="2" height="12" fill="#2A1410"/><line x1="1451" y1="63" x2="1446" y2="58" stroke="#18080A" stroke-width="1"/><line x1="1451" y1="65" x2="1456" y2="61" stroke="#18080A" stroke-width="1"/><line x1="1451" y1="62" x2="1454" y2="57" stroke="#18080A" stroke-width="1"/><rect x="1555" y="60" width="2" height="12" fill="#2A1410"/><line x1="1556" y1="63" x2="1551" y2="58" stroke="#18080A" stroke-width="1"/><line x1="1556" y1="65" x2="1561" y2="61" stroke="#18080A" stroke-width="1"/><line x1="1556" y1="62" x2="1559" y2="57" stroke="#18080A" stroke-width="1"/><rect x="1690" y="60" width="2" height="12" fill="#2A1410"/><line x1="1691" y1="63" x2="1686" y2="58" stroke="#18080A" stroke-width="1"/><line x1="1691" y1="65" x2="1696" y2="61" stroke="#18080A" stroke-width="1"/><line x1="1691" y1="62" x2="1694" y2="57" stroke="#18080A" stroke-width="1"/><rect x="1785" y="60" width="2" height="12" fill="#2A1410"/><line x1="1786" y1="63" x2="1781" y2="58" stroke="#18080A" stroke-width="1"/><line x1="1786" y1="65" x2="1791" y2="61" stroke="#18080A" stroke-width="1"/><line x1="1786" y1="62" x2="1789" y2="57" stroke="#18080A" stroke-width="1"/><rect x="1415" y="18" width="1" height="1" fill="#FFB04A"/><rect x="1416" y="19" width="1" height="1" fill="#FF7636" fill-opacity="0.8"/><rect x="1445" y="29" width="1" height="1" fill="#FFB04A"/><rect x="1475" y="40" width="1" height="1" fill="#FFB04A"/><rect x="1505" y="21" width="1" height="1" fill="#FFB04A"/><rect x="1506" y="22" width="1" height="1" fill="#FF7636" fill-opacity="0.8"/><rect x="1535" y="32" width="1" height="1" fill="#FFB04A"/><rect x="1565" y="43" width="1" height="1" fill="#FFB04A"/><rect x="1595" y="24" width="1" height="1" fill="#FFB04A"/><rect x="1596" y="25" width="1" height="1" fill="#FF7636" fill-opacity="0.8"/><rect x="1625" y="35" width="1" height="1" fill="#FFB04A"/><rect x="1655" y="46" width="1" height="1" fill="#FFB04A"/><rect x="1685" y="27" width="1" height="1" fill="#FFB04A"/><rect x="1686" y="28" width="1" height="1" fill="#FF7636" fill-opacity="0.8"/><rect x="1715" y="38" width="1" height="1" fill="#FFB04A"/><rect x="1745" y="19" width="1" height="1" fill="#FFB04A"/><rect x="1775" y="30" width="1" height="1" fill="#FFB04A"/><rect x="1776" y="31" width="1" height="1" fill="#FF7636" fill-opacity="0.8"/><rect x="1805" y="41" width="1" height="1" fill="#FFB04A"/>
<rect x="1800" y="0" width="200" height="56" fill="#4A7E9B" fill-opacity="0.12"/><rect x="1787" y="59" width="2" height="3" fill="#1C0E07"/><polygon points="1780,59 1796,59 1788,53" fill="#0D2A16"/><polygon points="1782,54 1794,54 1788,49" fill="#1B3D25"/><polygon points="1784,49 1792,49 1788,44" fill="#275C33"/><rect x="1799" y="59" width="2" height="3" fill="#1C0E07"/><polygon points="1794,59 1806,59 1800,54" fill="#0D2A16"/><polygon points="1795,55 1805,55 1800,51" fill="#1B3D25"/><polygon points="1797,51 1803,51 1800,48" fill="#275C33"/><rect x="1811" y="59" width="2" height="3" fill="#1C0E07"/><polygon points="1806,59 1818,59 1812,54" fill="#0D2A16"/><polygon points="1807,55 1817,55 1812,50" fill="#1B3D25"/><polygon points="1809,51 1815,51 1812,47" fill="#275C33"/><rect x="1823" y="59" width="2" height="3" fill="#1C0E07"/><polygon points="1817,59 1831,59 1824,53" fill="#0D2A16"/><polygon points="1819,55 1829,55 1824,50" fill="#1B3D25"/><polygon points="1820,51 1828,51 1824,46" fill="#275C33"/><rect x="1835" y="59" width="2" height="3" fill="#1C0E07"/><polygon points="1829,59 1843,59 1836,53" fill="#0D2A16"/><polygon points="1830,54 1842,54 1836,49" fill="#1B3D25"/><polygon points="1832,50 1840,50 1836,45" fill="#275C33"/><rect x="1847" y="59" width="2" height="3" fill="#1C0E07"/><polygon points="1840,59 1856,59 1848,53" fill="#0D2A16"/><polygon points="1842,54 1854,54 1848,49" fill="#1B3D25"/><polygon points="1844,49 1852,49 1848,44" fill="#275C33"/><rect x="1859" y="59" width="2" height="3" fill="#1C0E07"/><polygon points="1854,59 1866,59 1860,54" fill="#0D2A16"/><polygon points="1855,55 1865,55 1860,51" fill="#1B3D25"/><polygon points="1857,51 1863,51 1860,48" fill="#275C33"/><rect x="1871" y="59" width="2" height="3" fill="#1C0E07"/><polygon points="1866,59 1878,59 1872,54" fill="#0D2A16"/><polygon points="1867,55 1877,55 1872,50" fill="#1B3D25"/><polygon points="1869,51 1875,51 1872,47" fill="#275C33"/><rect x="1883" y="59" width="2" height="3" fill="#1C0E07"/><polygon points="1877,59 1891,59 1884,53" fill="#0D2A16"/><polygon points="1879,55 1889,55 1884,50" fill="#1B3D25"/><polygon points="1880,51 1888,51 1884,46" fill="#275C33"/><rect x="1895" y="59" width="2" height="3" fill="#1C0E07"/><polygon points="1889,59 1903,59 1896,53" fill="#0D2A16"/><polygon points="1890,54 1902,54 1896,49" fill="#1B3D25"/><polygon points="1892,50 1900,50 1896,45" fill="#275C33"/><rect x="1907" y="59" width="2" height="3" fill="#1C0E07"/><polygon points="1900,59 1916,59 1908,53" fill="#0D2A16"/><polygon points="1902,54 1914,54 1908,49" fill="#1B3D25"/><polygon points="1904,49 1912,49 1908,44" fill="#275C33"/><rect x="1919" y="59" width="2" height="3" fill="#1C0E07"/><polygon points="1914,59 1926,59 1920,54" fill="#0D2A16"/><polygon points="1915,55 1925,55 1920,51" fill="#1B3D25"/><polygon points="1917,51 1923,51 1920,48" fill="#275C33"/><rect x="1931" y="59" width="2" height="3" fill="#1C0E07"/><polygon points="1926,59 1938,59 1932,54" fill="#0D2A16"/><polygon points="1927,55 1937,55 1932,50" fill="#1B3D25"/><polygon points="1929,51 1935,51 1932,47" fill="#275C33"/><rect x="1943" y="59" width="2" height="3" fill="#1C0E07"/><polygon points="1937,59 1951,59 1944,53" fill="#0D2A16"/><polygon points="1939,55 1949,55 1944,50" fill="#1B3D25"/><polygon points="1940,51 1948,51 1944,46" fill="#275C33"/><rect x="1955" y="59" width="2" height="3" fill="#1C0E07"/><polygon points="1949,59 1963,59 1956,53" fill="#0D2A16"/><polygon points="1950,54 1962,54 1956,49" fill="#1B3D25"/><polygon points="1952,50 1960,50 1956,45" fill="#275C33"/><rect x="1967" y="59" width="2" height="3" fill="#1C0E07"/><polygon points="1960,59 1976,59 1968,53" fill="#0D2A16"/><polygon points="1962,54 1974,54 1968,49" fill="#1B3D25"/><polygon points="1964,49 1972,49 1968,44" fill="#275C33"/><rect x="1979" y="59" width="2" height="3" fill="#1C0E07"/><polygon points="1974,59 1986,59 1980,54" fill="#0D2A16"/><polygon points="1975,55 1985,55 1980,51" fill="#1B3D25"/><polygon points="1977,51 1983,51 1980,48" fill="#275C33"/><rect x="1991" y="59" width="2" height="3" fill="#1C0E07"/><polygon points="1986,59 1998,59 1992,54" fill="#0D2A16"/><polygon points="1987,55 1997,55 1992,50" fill="#1B3D25"/><polygon points="1989,51 1995,51 1992,47" fill="#275C33"/><rect x="2003" y="59" width="2" height="3" fill="#1C0E07"/><polygon points="1997,59 2011,59 2004,53" fill="#0D2A16"/><polygon points="1999,55 2009,55 2004,50" fill="#1B3D25"/><polygon points="2000,51 2008,51 2004,46" fill="#275C33"/><rect x="1800" y="64" width="200" height="36" fill="#2E5A38"/><rect x="1800" y="64" width="200" height="2" fill="#436E48"/><polygon points="1800,10 1818,10 1808,100 1790,100" fill="#FFF8D0" fill-opacity="0.08"/><polygon points="1900,10 1918,10 1908,100 1890,100" fill="#FFF8D0" fill-opacity="0.08"/><polygon points="2000,10 2018,10 2008,100 1990,100" fill="#FFF8D0" fill-opacity="0.08"/><rect x="1789" y="71" width="2" height="5" fill="#3B1E10"/><polygon points="1779,71 1801,71 1790,62" fill="#173C22"/><polygon points="1781,64 1799,64 1790,56" fill="#276039"/><polygon points="1784,57 1796,57 1790,50" fill="#4AA159"/><rect x="1844" y="71" width="2" height="5" fill="#3B1E10"/><polygon points="1832,71 1858,71 1845,60" fill="#173C22"/><polygon points="1835,63 1855,63 1845,54" fill="#276039"/><polygon points="1838,55 1852,55 1845,46" fill="#4AA159"/><rect x="1899" y="70" width="2" height="6" fill="#3B1E10"/><polygon points="1886,70 1914,70 1900,58" fill="#173C22"/><polygon points="1889,60 1911,60 1900,50" fill="#276039"/><polygon points="1893,51 1907,51 1900,42" fill="#4AA159"/><rect x="1954" y="71" width="2" height="5" fill="#3B1E10"/><polygon points="1944,71 1966,71 1955,62" fill="#173C22"/><polygon points="1946,63 1964,63 1955,55" fill="#276039"/><polygon points="1949,56 1961,56 1955,49" fill="#4AA159"/><rect x="2009" y="70" width="2" height="6" fill="#3B1E10"/><polygon points="1997,70 2023,70 2010,59" fill="#173C22"/><polygon points="2000,61 2020,61 2010,52" fill="#276039"/><polygon points="2003,53 2017,53 2010,45" fill="#4AA159"/><rect x="1821" y="80" width="2" height="1" fill="#6B5A38"/><rect x="1848" y="76" width="3" height="2" fill="#5A6B42"/><rect x="1875" y="79" width="2" height="1" fill="#8C7A4F"/><rect x="1902" y="78" width="1" height="3" fill="#F2EAD0"/><rect x="1901" y="77" width="3" height="2" fill="#C33A3A"/><rect x="1929" y="80" width="2" height="1" fill="#6B5A38"/><rect x="1956" y="76" width="3" height="2" fill="#5A6B42"/><rect x="1983" y="79" width="2" height="1" fill="#8C7A4F"/><rect x="1825" y="40" width="1" height="1" fill="#FFF4B0"/><rect x="1870" y="48" width="1" height="1" fill="#FFF4B0"/><rect x="1915" y="56" width="1" height="1" fill="#FFF4B0"/><rect x="1960" y="64" width="1" height="1" fill="#FFF4B0"/>

  <defs>
    <linearGradient id="blend-500" x1="0" y1="0" x2="1" y2="0">
      <stop offset="0" stop-color="#2E5A38"/>
      <stop offset="1" stop-color="#2458A4"/>
    </linearGradient>
  </defs>
  <rect x="480" y="62" width="40" height="38" fill="url(#blend-500)"/>
  

  <defs>
    <linearGradient id="blend-950" x1="0" y1="0" x2="1" y2="0">
      <stop offset="0" stop-color="#EFD29A"/>
      <stop offset="1" stop-color="#EAF2F8"/>
    </linearGradient>
  </defs>
  <rect x="925" y="62" width="50" height="38" fill="url(#blend-950)"/>
  

  <defs>
    <linearGradient id="blend-1400" x1="0" y1="0" x2="1" y2="0">
      <stop offset="0" stop-color="#EAF2F8"/>
      <stop offset="1" stop-color="#261A1F"/>
    </linearGradient>
  </defs>
  <rect x="1380" y="62" width="40" height="38" fill="url(#blend-1400)"/>
  

  <defs>
    <linearGradient id="blend-1800" x1="0" y1="0" x2="1" y2="0">
      <stop offset="0" stop-color="#261A1F"/>
      <stop offset="1" stop-color="#2E5A38"/>
    </linearGradient>
  </defs>
  <rect x="1765" y="62" width="70" height="38" fill="url(#blend-1800)"/>
  
</svg>